<?xml version="1.0" encoding="iso-8859-1"?>
<!-- Generator: Adobe Illustrator 19.0.0, SVG Export Plug-In . SVG Version: 6.00 Build 0)  -->
<svg version="1.1" id="Layer_1" xmlns="http://www.w3.org/2000/svg" xmlns:xlink="http://www.w3.org/1999/xlink" x="0px" y="0px"
	 viewBox="0 0 512 512" style="enable-background:new 0 0 512 512;" xml:space="preserve">
<path style="fill:#F47973;" d="M448.891,462.591c9-9.58,14.528-22.5,14.528-36.728V253.027c0-29.531-23.769-53.467-53.089-53.467
	H101.67c-29.321,0-53.089,23.937-53.089,53.467v172.835c0,14.228,5.53,27.149,14.528,36.728h385.783V462.591z"/>
<path style="fill:#ED5D51;" d="M303.147,127.757c1.843-7.002,2.856-14.532,2.856-22.382c0-37.083-32.1-67.147-49.386-67.147
	c-18.52,0-50.62,30.063-50.62,67.147c0,7.849,1.012,15.38,2.856,22.382H303.147z"/>
<path style="fill:#00B494;" d="M504.163,455.12c0,10.3-8.292,18.651-18.52,18.651H26.357c-10.227,0-18.52-8.351-18.52-18.651l0,0
	c0-10.302,8.292-18.651,18.52-18.651h459.287C495.871,436.468,504.163,444.817,504.163,455.12L504.163,455.12z"/>
<rect x="48.577" y="304.305" style="fill:#F1F2F2;" width="414.835" height="94.501"/>
<g>
	<path style="fill:#ED5D51;" d="M171.363,351.556c0,8.368-6.783,15.151-15.151,15.151H92.473c-8.368,0-15.151-6.783-15.151-15.151
		l0,0c0-8.368,6.783-15.151,15.151-15.151h63.739C164.58,336.405,171.363,343.188,171.363,351.556L171.363,351.556z"/>
	<path style="fill:#ED5D51;" d="M303.02,351.556c0,8.368-6.783,15.151-15.151,15.151h-63.739c-8.368,0-15.151-6.783-15.151-15.151
		l0,0c0-8.368,6.783-15.151,15.151-15.151h63.739C296.237,336.405,303.02,343.188,303.02,351.556L303.02,351.556z"/>
	<path style="fill:#ED5D51;" d="M434.678,351.556c0,8.368-6.783,15.151-15.151,15.151h-63.739c-8.368,0-15.151-6.783-15.151-15.151
		l0,0c0-8.368,6.783-15.151,15.151-15.151h63.739C427.894,336.405,434.678,343.188,434.678,351.556L434.678,351.556z"/>
</g>
<path style="fill:#F1F2F2;" d="M477.891,203.673c-4.428-30.288-30.505-53.549-62.022-53.549h-75.55
	c-0.658-18.645-15.864-33.559-34.538-33.559c-9.779,0-18.602,4.096-24.889,10.667c-6.289-6.571-15.111-10.667-24.891-10.667
	c-9.779,0-18.602,4.096-24.891,10.667c-6.288-6.571-15.11-10.667-24.889-10.667c-18.674,0-33.88,14.914-34.538,33.559H96.131
	c-31.518,0-57.595,23.26-62.022,53.549c-0.436,2.267-0.672,4.608-0.672,7.004v25.506c0,20.187,16.206,36.557,36.199,36.557
	c13.193,0,24.734-7.13,31.061-17.782c6.327,10.651,17.868,17.782,31.061,17.782s24.734-7.13,31.061-17.782
	c6.327,10.651,17.868,17.782,31.061,17.782c13.193,0,24.734-7.13,31.061-17.782c6.327,10.651,17.868,17.782,31.061,17.782
	s24.734-7.13,31.061-17.782c6.327,10.651,17.868,17.782,31.061,17.782c13.193,0,24.734-7.13,31.061-17.782
	c6.327,10.651,17.868,17.782,31.061,17.782s24.734-7.13,31.061-17.782c6.327,10.651,17.868,17.782,31.061,17.782
	c19.992,0,36.199-16.369,36.199-36.557v-25.506C478.563,208.281,478.328,205.94,477.891,203.673z"/>
<g style="opacity:0.2;">
	<path style="fill:#414042;" d="M50.155,455.12c0-10.302,8.292-18.651,18.52-18.651H91.95c-0.687-3.428-1.051-6.974-1.051-10.606
		V265.91c-9.165-6.633-15.144-17.473-15.144-29.726v-25.506c0-2.396,0.235-4.737,0.672-7.004
		c4.428-30.288,30.505-53.549,62.022-53.549H96.131c-31.518,0-57.595,23.26-62.022,53.549c-0.436,2.267-0.672,4.608-0.672,7.004
		v25.506c0,12.254,5.978,23.094,15.144,29.726v159.953c0,3.632,0.365,7.177,1.051,10.606H26.357c-10.227,0-18.52,8.349-18.52,18.651
		c0,10.3,8.292,18.651,18.52,18.651h42.318C58.447,473.77,50.155,465.419,50.155,455.12z"/>
</g>
<g>
	<path style="fill:#636052;" d="M485.643,428.632H471.19c0.043-0.921,0.066-1.843,0.066-2.769v-27.053v-94.506v-34.661
		c9.269-8.145,15.144-20.12,15.144-33.459v-25.506c0-2.768-0.262-5.562-0.78-8.308c-2.459-16.529-10.775-31.701-23.432-42.735
		c-12.83-11.186-29.28-17.346-46.32-17.346h-68.676c-3.596-16.591-16.808-29.602-33.452-32.797c0.059-1.369,0.098-2.739,0.098-4.115
		c0-40.667-35.148-74.984-57.223-74.984c-23.084,0-58.457,33.593-58.457,74.984c0,1.376,0.04,2.747,0.098,4.115
		c-16.644,3.195-29.856,16.206-33.452,32.797H96.131c-17.04,0-33.49,6.161-46.32,17.346c-12.657,11.035-20.973,26.206-23.432,42.735
		c-0.517,2.746-0.779,5.54-0.779,8.308v25.506c0,13.34,5.874,25.315,15.144,33.459v34.661v94.506v27.053
		c0,0.927,0.023,1.849,0.066,2.769H26.357C11.823,428.632,0,440.514,0,455.12c0,14.605,11.823,26.488,26.357,26.488h459.287
		c14.533,0,26.357-11.883,26.357-26.488C512,440.514,500.177,428.632,485.643,428.632z M56.417,312.139h399.167v78.832H56.417
		V312.139z M214.302,98.111c1.497,1.049,3.313,1.668,5.276,1.668c5.114,0,9.26-4.175,9.26-9.327c0-5.151-4.146-9.325-9.26-9.325
		c-0.214,0-0.424,0.019-0.634,0.032c9.128-21.219,28.177-35.096,37.674-35.096c8.929,0,27.431,14.104,36.42,35.095
		c-0.204-0.015-0.408-0.031-0.614-0.031c-5.114,0-9.26,4.173-9.26,9.325c0,5.151,4.146,9.327,9.26,9.327
		c1.959,0,3.773-0.616,5.269-1.662c0.299,2.373,0.474,4.791,0.474,7.258c0,1.36-0.048,2.713-0.117,4.062
		c-6.213,1.143-12.049,3.654-17.159,7.404c-7.186-5.273-15.801-8.113-24.891-8.113s-17.705,2.84-24.891,8.113
		c-5.111-3.75-10.946-6.261-17.159-7.404c-0.069-1.349-0.117-2.701-0.117-4.062C213.833,102.901,214.007,100.483,214.302,98.111z
		 M206.219,124.401c7.31,0,14.139,2.93,19.227,8.249c1.479,1.545,3.523,2.418,5.661,2.418l0,0c2.138,0,4.184-0.874,5.662-2.418
		c5.091-5.32,11.92-8.249,19.229-8.249c7.309,0,14.139,2.93,19.229,8.249c1.479,1.545,3.524,2.418,5.662,2.418
		s4.184-0.874,5.661-2.418c5.09-5.32,11.918-8.249,19.227-8.249c11.58,0,21.458,7.47,25.164,17.886H181.055
		C184.761,131.871,194.639,124.401,206.219,124.401z M41.273,210.676c0-1.837,0.179-3.695,0.53-5.523
		c0.022-0.115,0.042-0.231,0.059-0.347c3.905-26.707,27.235-46.846,54.269-46.846h319.739c27.034,0,50.364,20.139,54.268,46.846
		c0.017,0.116,0.037,0.232,0.059,0.347c0.351,1.829,0.53,3.686,0.53,5.523v25.506c0,15.836-12.724,28.72-28.363,28.72
		c-10.043,0-19.135-5.214-24.323-13.947c-1.413-2.377-3.973-3.835-6.737-3.835c-2.766,0-5.326,1.458-6.738,3.835
		c-5.187,8.732-14.281,13.947-24.322,13.947c-10.043,0-19.135-5.214-24.323-13.947c-1.413-2.377-3.973-3.835-6.737-3.835
		c-2.765,0-5.326,1.458-6.738,3.835c-5.187,8.732-14.281,13.947-24.323,13.947c-10.043,0-19.135-5.214-24.323-13.947
		c-1.412-2.377-3.973-3.835-6.737-3.835c-2.766,0-5.326,1.458-6.737,3.835c-5.187,8.732-14.281,13.947-24.323,13.947
		c-10.043,0-19.136-5.214-24.323-13.947c-1.413-2.377-3.973-3.835-6.738-3.835c-2.765,0-5.326,1.458-6.737,3.835
		c-5.187,8.732-14.281,13.947-24.323,13.947s-19.135-5.214-24.323-13.947c-1.413-2.377-3.973-3.835-6.738-3.835
		c-2.765,0-5.326,1.458-6.738,3.835c-5.187,8.732-14.281,13.947-24.323,13.947s-19.135-5.214-24.322-13.947
		c-1.413-2.377-3.973-3.835-6.737-3.835c-2.765,0-5.326,1.458-6.738,3.835c-5.187,8.732-14.28,13.947-24.323,13.947
		c-15.639,0-28.363-12.884-28.363-28.72v-25.506H41.273z M69.636,280.577c11.71,0,22.893-4.793,31.061-12.955
		c8.168,8.162,19.35,12.955,31.061,12.955c11.71,0,22.893-4.793,31.061-12.955c8.168,8.162,19.352,12.955,31.061,12.955
		s22.893-4.793,31.061-12.955c8.168,8.162,19.352,12.955,31.061,12.955c11.71,0,22.893-4.793,31.061-12.955
		c8.168,8.162,19.352,12.955,31.061,12.955c11.71,0,22.893-4.793,31.061-12.955c8.168,8.162,19.352,12.955,31.061,12.955
		c11.71,0,22.893-4.793,31.061-12.955c8.168,8.162,19.352,12.955,31.061,12.955c4.605,0,9.045-0.72,13.219-2.047v17.937H56.417
		V278.53C60.592,279.857,65.031,280.577,69.636,280.577z M56.417,425.863v-19.217h399.167v19.217c0,0.928-0.03,1.851-0.086,2.769
		H56.503C56.446,427.713,56.417,426.79,56.417,425.863z M485.643,465.934H26.357c-5.89,0-10.683-4.851-10.683-10.815
		s4.792-10.815,10.683-10.815h459.287c5.891,0,10.683,4.851,10.683,10.815C496.327,461.083,491.535,465.934,485.643,465.934z"/>
	<path style="fill:#636052;" d="M156.212,328.568H92.473c-12.676,0-22.988,10.312-22.988,22.988
		c0,12.676,10.312,22.988,22.988,22.988h63.739c12.676,0,22.988-10.312,22.988-22.988C179.2,338.88,168.888,328.568,156.212,328.568
		z M156.212,358.87H92.473c-4.033,0-7.314-3.282-7.314-7.314c0-4.032,3.281-7.314,7.314-7.314h63.739
		c4.033,0,7.314,3.282,7.314,7.314C163.527,355.588,160.246,358.87,156.212,358.87z"/>
	<path style="fill:#636052;" d="M287.869,328.568h-63.739c-12.676,0-22.988,10.312-22.988,22.988
		c0,12.676,10.312,22.988,22.988,22.988h63.739c12.676,0,22.988-10.312,22.988-22.988
		C310.857,338.88,300.545,328.568,287.869,328.568z M287.869,358.87h-63.739c-4.033,0-7.314-3.282-7.314-7.314
		c0-4.032,3.281-7.314,7.314-7.314h63.739c4.033,0,7.314,3.282,7.314,7.314C295.184,355.588,291.903,358.87,287.869,358.87z"/>
	<path style="fill:#636052;" d="M419.527,328.568h-63.739c-12.676,0-22.988,10.312-22.988,22.988
		c0,12.676,10.312,22.988,22.988,22.988h63.739c12.676,0,22.988-10.312,22.988-22.988
		C442.514,338.88,432.202,328.568,419.527,328.568z M419.527,358.87h-63.739c-4.033,0-7.314-3.282-7.314-7.314
		c0-4.032,3.281-7.314,7.314-7.314h63.739c4.033,0,7.314,3.282,7.314,7.314C426.841,355.588,423.56,358.87,419.527,358.87z"/>
	<ellipse style="fill:#636052;" cx="256" cy="90.456" rx="9.26" ry="9.327"/>
	<ellipse style="fill:#636052;" cx="241.8" cy="64.96" rx="9.26" ry="9.327"/>
	<ellipse style="fill:#636052;" cx="270.2" cy="64.96" rx="9.26" ry="9.327"/>
</g>
<g>
</g>
<g>
</g>
<g>
</g>
<g>
</g>
<g>
</g>
<g>
</g>
<g>
</g>
<g>
</g>
<g>
</g>
<g>
</g>
<g>
</g>
<g>
</g>
<g>
</g>
<g>
</g>
<g>
</g>
</svg>
